<?xml version="1.0" encoding="UTF-8"?>
<svg xmlns="http://www.w3.org/2000/svg" width="343.12" height="58.97" viewBox="0 0 343.12 58.97">
  <g id="intel-gaudi-devs-logo" transform="translate(-1.58 -0.7)">
    <g id="Group_1" data-name="Group 1">
      <rect id="Rectangle_1" data-name="Rectangle 1" width="10.96" height="10.96" transform="translate(1.58 1.5)" fill="#00c7fd"></rect>
      <path id="Path_1" data-name="Path 1" d="M12.25,58.52V19.1H1.87V58.52H12.26Zm68.84.4V49.25a25.256,25.256,0,0,1-3.76-.24,4.325,4.325,0,0,1-2.44-1.08,4.227,4.227,0,0,1-1.08-2.36,24.406,24.406,0,0,1-.24-3.81V27.97h7.52V19.09H73.57V3.74H63.19V41.85a34.011,34.011,0,0,0,.83,8.13,11.37,11.37,0,0,0,2.77,5.23,11.048,11.048,0,0,0,5.07,2.84,30.381,30.381,0,0,0,7.92.87h1.31Zm59.53-.4V.7H130.24V58.52ZM53.18,22.98C50.3,19.87,46.24,18.3,41.1,18.3a15.2,15.2,0,0,0-6.81,1.52,14.662,14.662,0,0,0-5.16,4.21l-.57.73V19.1H18.32V58.52H28.64V38.97c0-.24.01-.48.02-.71.11-3.68,1.03-6.43,2.74-8.18a8.946,8.946,0,0,1,6.59-2.8c3,0,5.28.92,6.8,2.73,1.48,1.77,2.24,4.32,2.26,7.56h0v.1h0V58.52H57.53V36.14c0-5.62-1.46-10.05-4.34-13.16Zm71.64,15.75a21.048,21.048,0,0,0-1.5-7.97,20.53,20.53,0,0,0-4.18-6.51,18.957,18.957,0,0,0-6.42-4.37,21.1,21.1,0,0,0-8.25-1.58,19.98,19.98,0,0,0-8.01,1.62A20.438,20.438,0,0,0,85.57,30.81a20.116,20.116,0,0,0-1.62,8.01,20.966,20.966,0,0,0,1.54,8.01,19.922,19.922,0,0,0,4.26,6.51,20.154,20.154,0,0,0,6.59,4.38,21.86,21.86,0,0,0,8.45,1.62,22.367,22.367,0,0,0,17.54-7.74l-7.47-5.69a13.711,13.711,0,0,1-9.98,4.4,11.957,11.957,0,0,1-7.17-2.01,10.04,10.04,0,0,1-3.75-5.47l-.1-.37h30.97V38.75ZM93.93,35.11c0-2.89,3.31-7.92,10.45-7.93s10.46,5.03,10.46,7.92H93.92Z" fill="#efefef"></path>
    </g>
    <g id="Group_2" data-name="Group 2">
      <path id="Path_2" data-name="Path 2" d="M181.62,37.4h16.44V52.25s-5.5,7.09-17.29,7.09-20.98-9.07-20.98-20.41,9.07-20.41,20.98-20.41c10.77,0,15.87,6.92,15.87,6.92l-3.97,3.97s-3.68-5.22-11.91-5.22a14.74,14.74,0,1,0,0,29.48,19,19,0,0,0,11.05-3.34V43.07h-10.2V37.4Z" fill="#efefef"></path>
      <path id="Path_3" data-name="Path 3" d="M241.82,33.66V58.77h-6.07V51.85c-3.74,5.56-9.07,7.82-15.14,7.82a23.355,23.355,0,0,1-8.11-1.3c-6.97-2.32-11.45-8.11-9.35-15.25,2.1-7.09,8.73-7.99,15.87-7.99h16.84c-.06-7.71-6.24-11.28-14.68-11.28a13.666,13.666,0,0,0-10.09,3.74l-4.08-4.37c3.23-2.72,7.26-4.37,13.78-4.71,12.08-.57,21.09,6.35,21.03,15.14Zm-5.95,7.03H218.52c-6.01,0-8.45,1.42-9.18,4.76-.79,3.63,1.81,8.62,11.22,8.62a15.216,15.216,0,0,0,15.31-13.38Z" fill="#efefef"></path>
      <path id="Path_4" data-name="Path 4" d="M286,41.49c0,9.92-7.94,17.86-18.31,17.86s-18.37-7.94-18.37-17.86V19.1h6.24V41.49a12.105,12.105,0,1,0,24.21,0V19.1h6.24V41.49Z" fill="#efefef"></path>
      <path id="Path_5" data-name="Path 5" d="M294.49,58.78V19.09h17.69a19.84,19.84,0,0,1,0,39.68H294.49Zm17.23-5.67a14.17,14.17,0,1,0,0-28.34h-11V53.12h11Z" fill="#efefef"></path>
      <path id="Path_6" data-name="Path 6" d="M338.46,19.09h6.24V58.77h-6.24Z" fill="#212121"></path>
    </g>
  </g>
</svg>
