<svg width="1600" height="802" viewBox="0 0 1600 802" fill="none" xmlns="http://www.w3.org/2000/svg">
<rect y="1" width="80" height="80" stroke="#EBEEF4"/>
<rect x="80" y="1" width="80" height="80" stroke="#EBEEF4"/>
<rect x="160" y="1" width="80" height="80" stroke="#EBEEF4"/>
<rect x="240" y="1" width="80" height="80" stroke="#EBEEF4"/>
<rect x="320" y="1" width="80" height="80" stroke="#EBEEF4"/>
<rect x="400" y="1" width="80" height="80" stroke="#EBEEF4"/>
<rect x="480" y="1" width="80" height="80" stroke="#EBEEF4"/>
<rect x="560" y="1" width="80" height="80" stroke="#EBEEF4"/>
<rect x="640" y="1" width="80" height="80" stroke="#EBEEF4"/>
<rect x="720" y="1" width="80" height="80" stroke="#EBEEF4"/>
<rect x="800" y="1" width="80" height="80" stroke="#EBEEF4"/>
<rect x="880" y="1" width="80" height="80" stroke="#EBEEF4"/>
<rect x="960" y="1" width="80" height="80" stroke="#EBEEF4"/>
<rect x="1040" y="1" width="80" height="80" stroke="#EBEEF4"/>
<rect x="1120" y="1" width="80" height="80" stroke="#EBEEF4"/>
<rect x="1200" y="1" width="80" height="80" stroke="#EBEEF4"/>
<rect x="1280" y="1" width="80" height="80" stroke="#EBEEF4"/>
<rect x="1360" y="1" width="80" height="80" fill="#EBEEF4" stroke="#EBEEF4"/>
<rect x="1440" y="1" width="80" height="80" stroke="#EBEEF4"/>
<rect x="1520" y="1" width="80" height="80" stroke="#EBEEF4"/>
<rect y="81" width="80" height="80" stroke="#EBEEF4"/>
<rect x="480" y="81" width="80" height="80" stroke="#EBEEF4"/>
<rect x="560" y="81" width="80" height="80" fill="#EBEEF4" stroke="#EBEEF4"/>
<rect x="640" y="81" width="80" height="80" stroke="#EBEEF4"/>
<rect x="720" y="81" width="80" height="80" stroke="#EBEEF4"/>
<rect x="800" y="81" width="80" height="80" stroke="#EBEEF4"/>
<rect x="880" y="81" width="80" height="80" stroke="#EBEEF4"/>
<rect x="960" y="81" width="80" height="80" stroke="#EBEEF4"/>
<rect x="1040" y="81" width="80" height="80" stroke="#EBEEF4"/>
<rect x="1120" y="81" width="80" height="80" stroke="#EBEEF4"/>
<rect x="1200" y="81" width="80" height="80" stroke="#EBEEF4"/>
<rect x="1280" y="81" width="80" height="80" stroke="#EBEEF4"/>
<rect x="1360" y="81" width="80" height="80" stroke="#EBEEF4"/>
<rect x="1440" y="81" width="80" height="80" stroke="#EBEEF4"/>
<rect x="1520" y="81" width="80" height="80" fill="#EBEEF4" stroke="#EBEEF4"/>
<rect y="161" width="80" height="80" fill="#EBEEF4" stroke="#EBEEF4"/>
<rect x="80" y="161" width="80" height="80" stroke="#EBEEF4"/>
<rect x="720" y="161" width="80" height="80" stroke="#EBEEF4"/>
<rect x="800" y="161" width="80" height="80" stroke="#EBEEF4"/>
<rect x="880" y="161" width="80" height="80" stroke="#EBEEF4"/>
<rect x="960" y="161" width="80" height="80" stroke="#EBEEF4"/>
<rect x="1040" y="161" width="80" height="80" stroke="#EBEEF4"/>
<rect x="1120" y="161" width="80" height="80" stroke="#EBEEF4"/>
<rect x="1200" y="161" width="80" height="80" stroke="#EBEEF4"/>
<rect x="1280" y="161" width="80" height="80" stroke="#EBEEF4"/>
<rect x="1360" y="161" width="80" height="80" stroke="#EBEEF4"/>
<rect x="1440" y="161" width="80" height="80" stroke="#EBEEF4"/>
<rect x="1520" y="161" width="80" height="80" stroke="#EBEEF4"/>
<rect y="241" width="80" height="80" stroke="#EBEEF4"/>
<rect x="80" y="241" width="80" height="80" stroke="#EBEEF4"/>
<rect x="720" y="241" width="80" height="80" stroke="#EBEEF4"/>
<rect x="800" y="241" width="80" height="80" stroke="#EBEEF4"/>
<rect x="880" y="241" width="80" height="80" stroke="#EBEEF4"/>
<rect x="960" y="241" width="80" height="80" stroke="#EBEEF4"/>
<rect x="1040" y="241" width="80" height="80" stroke="#EBEEF4"/>
<rect x="1120" y="241" width="80" height="80" stroke="#EBEEF4"/>
<rect x="1200" y="241" width="80" height="80" stroke="#EBEEF4"/>
<rect x="1280" y="241" width="80" height="80" stroke="#EBEEF4"/>
<rect x="1360" y="241" width="80" height="80" stroke="#EBEEF4"/>
<rect x="1440" y="241" width="80" height="80" stroke="#EBEEF4"/>
<rect x="1520" y="241" width="80" height="80" stroke="#EBEEF4"/>
<rect y="321" width="80" height="80" stroke="#EBEEF4"/>
<rect x="80" y="321" width="80" height="80" stroke="#EBEEF4"/>
<rect x="640" y="321" width="80" height="80" stroke="#EBEEF4"/>
<rect x="720" y="321" width="80" height="80" stroke="#EBEEF4"/>
<rect x="800" y="321" width="80" height="80" stroke="#EBEEF4"/>
<rect x="880" y="321" width="80" height="80" stroke="#EBEEF4"/>
<rect x="960" y="321" width="80" height="80" stroke="#EBEEF4"/>
<rect x="1040" y="321" width="80" height="80" stroke="#EBEEF4"/>
<rect x="1120" y="321" width="80" height="80" stroke="#EBEEF4"/>
<rect x="1200" y="321" width="80" height="80" stroke="#EBEEF4"/>
<rect x="1280" y="321" width="80" height="80" stroke="#EBEEF4"/>
<rect x="1360" y="321" width="80" height="80" stroke="#EBEEF4"/>
<rect x="1440" y="321" width="80" height="80" stroke="#EBEEF4"/>
<rect x="1520" y="321" width="80" height="80" stroke="#EBEEF4"/>
<rect y="401" width="80" height="80" stroke="#EBEEF4"/>
<rect x="720" y="401" width="80" height="80" stroke="#EBEEF4"/>
<rect x="800" y="401" width="80" height="80" stroke="#EBEEF4"/>
<rect x="880" y="401" width="80" height="80" stroke="#EBEEF4"/>
<rect x="960" y="401" width="80" height="80" stroke="#EBEEF4"/>
<rect x="1040" y="401" width="80" height="80" stroke="#EBEEF4"/>
<rect x="1120" y="401" width="80" height="80" stroke="#EBEEF4"/>
<rect x="1200" y="401" width="80" height="80" stroke="#EBEEF4"/>
<rect x="1280" y="401" width="80" height="80" stroke="#EBEEF4"/>
<rect x="1360" y="401" width="80" height="80" stroke="#EBEEF4"/>
<rect x="1440" y="401" width="80" height="80" stroke="#EBEEF4"/>
<rect x="1520" y="401" width="80" height="80" stroke="#EBEEF4"/>
<rect y="481" width="80" height="80" stroke="#EBEEF4"/>
<rect x="80" y="481" width="80" height="80" stroke="#EBEEF4"/>
<rect x="640" y="481" width="80" height="80" stroke="#EBEEF4"/>
<rect x="720" y="481" width="80" height="80" stroke="#EBEEF4"/>
<rect x="800" y="481" width="80" height="80" stroke="#EBEEF4"/>
<rect x="880" y="481" width="80" height="80" stroke="#EBEEF4"/>
<rect x="960" y="481" width="80" height="80" stroke="#EBEEF4"/>
<rect x="1040" y="481" width="80" height="80" stroke="#EBEEF4"/>
<rect x="1120" y="481" width="80" height="80" stroke="#EBEEF4"/>
<rect x="1200" y="481" width="80" height="80" stroke="#EBEEF4"/>
<rect x="1280" y="481" width="80" height="80" stroke="#EBEEF4"/>
<rect x="1360" y="481" width="80" height="80" stroke="#EBEEF4"/>
<rect x="1440" y="481" width="80" height="80" stroke="#EBEEF4"/>
<rect x="1520" y="481" width="80" height="80" stroke="#EBEEF4"/>
<rect y="561" width="80" height="80" fill="#EBEEF4" stroke="#EBEEF4"/>
<rect x="80" y="561" width="80" height="80" stroke="#EBEEF4"/>
<rect x="480" y="561" width="80" height="80" stroke="#EBEEF4"/>
<rect x="560" y="561" width="80" height="80" stroke="#EBEEF4"/>
<rect x="640" y="561" width="80" height="80" fill="#EBEEF4" stroke="#EBEEF4"/>
<rect x="720" y="561" width="80" height="80" stroke="#EBEEF4"/>
<rect x="800" y="561" width="80" height="80" stroke="#EBEEF4"/>
<rect x="880" y="561" width="80" height="80" stroke="#EBEEF4"/>
<rect x="960" y="561" width="80" height="80" stroke="#EBEEF4"/>
<rect x="1040" y="561" width="80" height="80" stroke="#EBEEF4"/>
<rect x="1120" y="561" width="80" height="80" stroke="#EBEEF4"/>
<rect x="1200" y="561" width="80" height="80" stroke="#EBEEF4"/>
<rect x="1280" y="561" width="80" height="80" stroke="#EBEEF4"/>
<rect x="1360" y="561" width="80" height="80" stroke="#EBEEF4"/>
<rect x="1440" y="561" width="80" height="80" stroke="#EBEEF4"/>
<rect x="1520" y="561" width="80" height="80" stroke="#EBEEF4"/>
<rect y="641" width="80" height="80" stroke="#EBEEF4"/>
<rect x="80" y="641" width="80" height="80" fill="#EBEEF4" stroke="#EBEEF4"/>
<rect x="160" y="641" width="80" height="80" stroke="#EBEEF4"/>
<rect x="240" y="641" width="80" height="80" stroke="#EBEEF4"/>
<rect x="320" y="641" width="80" height="80" stroke="#EBEEF4"/>
<rect x="400" y="641" width="80" height="80" stroke="#EBEEF4"/>
<rect x="480" y="641" width="80" height="80" stroke="#EBEEF4"/>
<rect x="560" y="641" width="80" height="80" stroke="#EBEEF4"/>
<rect x="640" y="641" width="80" height="80" stroke="#EBEEF4"/>
<rect x="720" y="641" width="80" height="80" stroke="#EBEEF4"/>
<rect x="800" y="641" width="80" height="80" stroke="#EBEEF4"/>
<rect x="880" y="641" width="80" height="80" stroke="#EBEEF4"/>
<rect x="960" y="641" width="80" height="80" stroke="#EBEEF4"/>
<rect x="1040" y="641" width="80" height="80" stroke="#EBEEF4"/>
<rect x="1120" y="641" width="80" height="80" stroke="#EBEEF4"/>
<rect x="1200" y="641" width="80" height="80" stroke="#EBEEF4"/>
<rect x="1280" y="641" width="80" height="80" stroke="#EBEEF4"/>
<rect x="1360" y="641" width="80" height="80" stroke="#EBEEF4"/>
<rect x="1440" y="641" width="80" height="80" stroke="#EBEEF4"/>
<rect x="1520" y="641" width="80" height="80" fill="#EBEEF4" stroke="#EBEEF4"/>
<rect y="721" width="80" height="80" stroke="#EBEEF4"/>
<rect x="80" y="721" width="80" height="80" stroke="#EBEEF4"/>
<rect x="160" y="721" width="80" height="80" stroke="#EBEEF4"/>
<rect x="240" y="721" width="80" height="80" stroke="#EBEEF4"/>
<rect x="320" y="721" width="80" height="80" stroke="#EBEEF4"/>
<rect x="400" y="721" width="80" height="80" stroke="#EBEEF4"/>
<rect x="480" y="721" width="80" height="80" stroke="#EBEEF4"/>
<rect x="560" y="721" width="80" height="80" stroke="#EBEEF4"/>
<rect x="640" y="721" width="80" height="80" stroke="#EBEEF4"/>
<rect x="720" y="721" width="80" height="80" stroke="#EBEEF4"/>
<rect x="800" y="721" width="80" height="80" stroke="#EBEEF4"/>
<rect x="880" y="721" width="80" height="80" stroke="#EBEEF4"/>
<rect x="960" y="721" width="80" height="80" stroke="#EBEEF4"/>
<rect x="1040" y="721" width="80" height="80" stroke="#EBEEF4"/>
<rect x="1120" y="721" width="80" height="80" stroke="#EBEEF4"/>
<rect x="1200" y="721" width="80" height="80" stroke="#EBEEF4"/>
<rect x="1280" y="721" width="80" height="80" stroke="#EBEEF4"/>
<rect x="1360" y="721" width="80" height="80" stroke="#EBEEF4"/>
<rect x="1440" y="721" width="80" height="80" fill="#EBEEF4" stroke="#EBEEF4"/>
<rect x="1520" y="721" width="80" height="80" stroke="#EBEEF4"/>
</svg>
